<svg xmlns="http://www.w3.org/2000/svg" xmlns:xlink="http://www.w3.org/1999/xlink" xmlns:lucid="lucid" width="1846.4" height="1004"><g transform="translate(-12 -119.99999999999989)" lucid:page-tab-id="0_0"><path d="M0 0h1870.4v1323.2H0z" fill="#fff"/><path d="M32 140h348v232H32z" fill="#fff"/><path d="M32 140h348v232H32zM32 180h348M84.93 180v192M235.33 180v192" stroke="#000" stroke-width="2" fill="none"/><use xlink:href="#a" transform="matrix(1,0,0,1,42,139.9999999999999) translate(142.025 23.6)"/><use xlink:href="#b" transform="matrix(1,0,0,1,37,182.4999999999999) translate(9.5 17.1)"/><use xlink:href="#c" transform="matrix(1,0,0,1,89.9333333333334,182.4999999999999) translate(0 17.1)"/><use xlink:href="#d" transform="matrix(1,0,0,1,240.33333333333334,182.4999999999999) translate(0 17.1)"/><use xlink:href="#e" transform="matrix(1,0,0,1,89.9333333333334,214.4999999999999) translate(0 17.1)"/><use xlink:href="#f" transform="matrix(1,0,0,1,240.33333333333334,214.4999999999999) translate(0 17.1)"/><use xlink:href="#g" transform="matrix(1,0,0,1,89.9333333333334,246.4999999999999) translate(0 17.1)"/><use xlink:href="#f" transform="matrix(1,0,0,1,240.33333333333334,246.4999999999999) translate(0 17.1)"/><use xlink:href="#h" transform="matrix(1,0,0,1,89.9333333333334,278.4999999999999) translate(0 17.1)"/><use xlink:href="#f" transform="matrix(1,0,0,1,240.33333333333334,278.4999999999999) translate(0 17.1)"/><use xlink:href="#i" transform="matrix(1,0,0,1,89.9333333333334,310.4999999999999) translate(0 17.1)"/><use xlink:href="#j" transform="matrix(1,0,0,1,240.33333333333334,310.4999999999999) translate(0 17.1)"/><use xlink:href="#k" transform="matrix(1,0,0,1,89.9333333333334,342.4999999999999) translate(0 17.1)"/><use xlink:href="#l" transform="matrix(1,0,0,1,240.33333333333334,342.4999999999999) translate(0 17.1)"/><path d="M560 140h340v168H560z" fill="#fff"/><path d="M560 140h340v168H560zM560 180h340M632.67 180v128M796.67 180v128" stroke="#000" stroke-width="2" fill="none"/><use xlink:href="#m" transform="matrix(1,0,0,1,570,139.9999999999999) translate(88.525 23.6)"/><use xlink:href="#n" transform="matrix(1,0,0,1,565,182.4999999999999) translate(3.0249999999999986 17.1)"/><use xlink:href="#o" transform="matrix(1,0,0,1,565,182.4999999999999) translate(37.025 17.1)"/><use xlink:href="#p" transform="matrix(1,0,0,1,637.6666666666666,182.4999999999999) translate(0 17.1)"/><use xlink:href="#d" transform="matrix(1,0,0,1,801.6666666666666,182.4999999999999) translate(0 17.1)"/><use xlink:href="#q" transform="matrix(1,0,0,1,565,214.4999999999999) translate(20.025 17.1)"/><use xlink:href="#r" transform="matrix(1,0,0,1,637.6666666666666,214.4999999999999) translate(0 17.1)"/><use xlink:href="#d" transform="matrix(1,0,0,1,801.6666666666666,214.4999999999999) translate(0 17.1)"/><use xlink:href="#s" transform="matrix(1,0,0,1,637.6666666666666,246.4999999999999) translate(0 17.1)"/><use xlink:href="#d" transform="matrix(1,0,0,1,801.6666666666666,246.4999999999999) translate(0 17.1)"/><use xlink:href="#t" transform="matrix(1,0,0,1,637.6666666666666,278.4999999999999) translate(0 17.1)"/><use xlink:href="#d" transform="matrix(1,0,0,1,801.6666666666666,278.4999999999999) translate(0 17.1)"/><path d="M430 540h340v264H430z" fill="#fff"/><path d="M430 540h340v264H430zM430 580h340M510.67 580v224M640.67 580v224" stroke="#000" stroke-width="2" fill="none"/><use xlink:href="#u" transform="matrix(1,0,0,1,440,540) translate(129 23.6)"/><use xlink:href="#n" transform="matrix(1,0,0,1,435,582.5) translate(7.024999999999999 17.1)"/><use xlink:href="#o" transform="matrix(1,0,0,1,435,582.5) translate(41.025 17.1)"/><use xlink:href="#p" transform="matrix(1,0,0,1,515.6666666666666,582.5) translate(0 17.1)"/><use xlink:href="#d" transform="matrix(1,0,0,1,645.6666666666667,582.5) translate(0 17.1)"/><use xlink:href="#q" transform="matrix(1,0,0,1,435,614.5) translate(24.025 17.1)"/><use xlink:href="#v" transform="matrix(1,0,0,1,515.6666666666666,614.5) translate(0 17.1)"/><use xlink:href="#d" transform="matrix(1,0,0,1,645.6666666666667,614.5) translate(0 17.1)"/><use xlink:href="#e" transform="matrix(1,0,0,1,515.6666666666666,646.5) translate(0 17.1)"/><use xlink:href="#w" transform="matrix(1,0,0,1,645.6666666666667,646.5) translate(0 17.1)"/><use xlink:href="#x" transform="matrix(1,0,0,1,515.6666666666666,678.5) translate(0 17.1)"/><use xlink:href="#d" transform="matrix(1,0,0,1,645.6666666666667,678.5) translate(0 17.1)"/><use xlink:href="#y" transform="matrix(1,0,0,1,515.6666666666666,710.5) translate(0 17.1)"/><use xlink:href="#j" transform="matrix(1,0,0,1,645.6666666666667,710.5) translate(0 17.1)"/><use xlink:href="#z" transform="matrix(1,0,0,1,515.6666666666666,742.5) translate(0 17.1)"/><use xlink:href="#j" transform="matrix(1,0,0,1,645.6666666666667,742.5) translate(0 17.1)"/><use xlink:href="#k" transform="matrix(1,0,0,1,515.6666666666666,774.5) translate(0 17.1)"/><use xlink:href="#l" transform="matrix(1,0,0,1,645.6666666666667,774.5) translate(0 17.1)"/><path d="M32 540h348v360H32z" fill="#fff"/><path d="M32 540h348v360H32zM32 580h348M104.67 580v320M240.67 580v320" stroke="#000" stroke-width="2" fill="none"/><use xlink:href="#A" transform="matrix(1,0,0,1,42,540) translate(142.525 23.6)"/><use xlink:href="#n" transform="matrix(1,0,0,1,37,582.5) translate(3.0249999999999986 17.1)"/><use xlink:href="#o" transform="matrix(1,0,0,1,37,582.5) translate(37.025 17.1)"/><use xlink:href="#p" transform="matrix(1,0,0,1,109.66666666666666,582.5) translate(0 17.1)"/><use xlink:href="#d" transform="matrix(1,0,0,1,245.66666666666669,582.5) translate(0 17.1)"/><use xlink:href="#q" transform="matrix(1,0,0,1,37,614.5) translate(20.025 17.1)"/><use xlink:href="#v" transform="matrix(1,0,0,1,109.66666666666666,614.5) translate(0 17.1)"/><use xlink:href="#d" transform="matrix(1,0,0,1,245.66666666666669,614.5) translate(0 17.1)"/><use xlink:href="#e" transform="matrix(1,0,0,1,109.66666666666666,646.5) translate(0 17.1)"/><use xlink:href="#w" transform="matrix(1,0,0,1,245.66666666666669,646.5) translate(0 17.1)"/><use xlink:href="#B" transform="matrix(1,0,0,1,109.66666666666666,678.5) translate(0 17.1)"/><use xlink:href="#C" transform="matrix(1,0,0,1,245.66666666666669,678.5) translate(0 17.1)"/><use xlink:href="#D" transform="matrix(1,0,0,1,109.66666666666666,710.5) translate(0 17.1)"/><use xlink:href="#d" transform="matrix(1,0,0,1,245.66666666666669,710.5) translate(0 17.1)"/><use xlink:href="#x" transform="matrix(1,0,0,1,109.66666666666666,742.5) translate(0 17.1)"/><use xlink:href="#d" transform="matrix(1,0,0,1,245.66666666666669,742.5) translate(0 17.1)"/><use xlink:href="#E" transform="matrix(1,0,0,1,109.66666666666666,774.5) translate(0 17.1)"/><use xlink:href="#l" transform="matrix(1,0,0,1,245.66666666666669,774.5) translate(0 17.1)"/><use xlink:href="#y" transform="matrix(1,0,0,1,109.66666666666666,806.5) translate(0 17.1)"/><use xlink:href="#j" transform="matrix(1,0,0,1,245.66666666666669,806.5) translate(0 17.1)"/><use xlink:href="#z" transform="matrix(1,0,0,1,109.66666666666666,838.5) translate(0 17.1)"/><use xlink:href="#j" transform="matrix(1,0,0,1,245.66666666666669,838.5) translate(0 17.1)"/><use xlink:href="#k" transform="matrix(1,0,0,1,109.66666666666666,870.5) translate(0 17.1)"/><use xlink:href="#l" transform="matrix(1,0,0,1,245.66666666666669,870.5) translate(0 17.1)"/><path d="M1458.4 700h380v200h-380z" fill="#fff"/><path d="M1458.4 700h380v200h-380zM1458.4 740h380M1518.4 740v160M1720.67 740v160" stroke="#000" stroke-width="2" fill="none"/><use xlink:href="#F" transform="matrix(1,0,0,1,1468.3999999999999,700) translate(131.55 23.6)"/><use xlink:href="#b" transform="matrix(1,0,0,1,1463.3999999999999,742.5) translate(13 17.1)"/><use xlink:href="#c" transform="matrix(1,0,0,1,1523.3999999999999,742.5) translate(0 17.1)"/><use xlink:href="#d" transform="matrix(1,0,0,1,1725.6666666666665,742.5) translate(0 17.1)"/><use xlink:href="#q" transform="matrix(1,0,0,1,1463.3999999999999,774.5) translate(13.524999999999999 17.1)"/><use xlink:href="#G" transform="matrix(1,0,0,1,1523.3999999999999,774.5) translate(0 17.1)"/><use xlink:href="#d" transform="matrix(1,0,0,1,1725.6666666666665,774.5) translate(0 17.1)"/><use xlink:href="#q" transform="matrix(1,0,0,1,1463.3999999999999,806.5) translate(13.524999999999999 17.1)"/><use xlink:href="#H" transform="matrix(1,0,0,1,1523.3999999999999,806.5) translate(0 17.1)"/><use xlink:href="#d" transform="matrix(1,0,0,1,1725.6666666666665,806.5) translate(0 17.1)"/><use xlink:href="#I" transform="matrix(1,0,0,1,1523.3999999999999,838.5) translate(0 17.1)"/><use xlink:href="#d" transform="matrix(1,0,0,1,1725.6666666666665,838.5) translate(0 17.1)"/><use xlink:href="#y" transform="matrix(1,0,0,1,1523.3999999999999,870.5) translate(0 17.1)"/><use xlink:href="#j" transform="matrix(1,0,0,1,1725.6666666666665,870.5) translate(0 17.1)"/><path d="M401 160h138" stroke="#000" stroke-width="2" fill="none"/><path fill="#fff"/><path d="M392 170h-2v-20h2z"/><path d="M401 161h-20v-2h20z"/><path fill="#fff"/><path d="M402 170h-2v-20h2z"/><path fill="#fff"/><path d="M550 170h-2v-20h2z"/><path d="M559 161h-20v-2h20z"/><path fill="#fff"/><path d="M540 170h-2v-20h2z"/><path d="M600 500v-76h-.25v-95" stroke="#000" stroke-width="2" fill="none"/><path d="M610.9 538.1l-1.8.9-9.1-18.2-9.1 18.2-1.8-.9 10.9-21.78z"/><path d="M601 538.55h-2v-20h2z"/><path d="M610 508.55l-.5 3.16-1.43 2.76-2.16 2.16-2.74 1.42-3.16.5-3.16-.5-2.75-1.42-2.17-2.16-1.42-2.75-.5-3.15.5-3.16 1.43-2.75 2.16-2.17 2.74-1.42 3.16-.5 3.16.5 2.75 1.42 2.17 2.17 1.42 2.74.5 3.15z" fill="#fff"/><path d="M603.48 498.1l3.02 1.57 2.4 2.38 1.55 3.02.54 3.32-1 .15 1 .16-.55 3.33-1.56 3.03-2.4 2.38-3.02 1.56-3.48.57-3.48-.57-3.02-1.56-2.4-2.38-1.55-3.03-.56-3.48.55-3.48 1.56-3.02 2.4-2.38 3.02-1.57 3.48-.56zm-6.32 1.92l-2.47 1.28-1.95 1.94-1.28 2.47-.46 2.85.47 2.85 1.28 2.46 1.94 1.95 2.46 1.28 2.84.46 2.84-.46 2.47-1.27 1.95-1.94 1.28-2.46.46-2.85-.47-2.84-1.28-2.46-1.94-1.94-2.46-1.28-2.84-.45z"/><path fill="#fff"/><path d="M609.75 320h-20v-2h20z"/><path d="M600.75 329h-2v-20h2z"/><path fill="#fff"/><path d="M609.75 330h-20v-2h20z"/><path d="M340.5 500.1l1.43-9.72 2.22-11.63 2.66-11.37 3.1-11.07 3.5-10.76 3.88-10.42 4.24-10.08 4.57-9.72 4.87-9.34 5.17-8.95 5.43-8.56 5.68-8.17 5.9-7.78 6.1-7.38 6.3-7 6.48-6.6 6.64-6.25 6.8-5.87 6.94-5.5 7.1-5.15 7.2-4.8 7.35-4.45 7.5-4.1 7.6-3.8 7.76-3.44 7.9-3.14 8.06-2.8 8.2-2.48 8.37-2.15 8.54-1.8 8.74-1.5 8.95-1.12 3.38-.27" stroke="#000" stroke-width="2" fill="none"/><path d="M348.8 538.83l-1.84.78-7.86-18.77-10.3 17.56-1.73-1.03 12.33-21z"/><path d="M340.25 518.66l-1.34 19.96-2-.14 1.35-19.95z"/><path d="M349.92 508.62l-.5 3.16-1.43 2.74-2.17 2.17-2.75 1.4-3.16.52-3.16-.5-2.74-1.43-2.17-2.18-1.42-2.74-.5-3.16.5-3.16 1.42-2.75 2.17-2.15 2.74-1.42 3.16-.5 3.16.5 2.75 1.42 2.16 2.16 1.4 2.76.52 3.16z" fill="#fff"/><path d="M343.4 498.17l3.02 1.56 2.4 2.38 1.55 3.04.54 3.32-.98.16 1 .16-.55 3.32-1.56 3.02-2.38 2.38-3.02 1.57-3.48.56-3.48-.56-3.02-1.57-2.4-2.38-1.55-3.02-.56-3.48.57-3.48 1.56-3.03 2.4-2.37 3-1.56 3.5-.57zm-6.32 1.92l-2.47 1.26-1.93 1.95-1.28 2.47-.47 2.85.46 2.84 1.27 2.47 1.94 1.94 2.48 1.28 2.84.45 2.85-.45 2.46-1.28 1.95-1.94 1.27-2.47.46-2.84-.45-2.85-1.27-2.46-1.95-1.94-2.46-1.27-2.85-.47z"/><path fill="#fff"/><path d="M550.47 302.4l-2 .1-.92-19.98 2-.1z"/><path d="M559.05 293l-19.98.93-.1-2 19.98-.93z"/><path fill="#fff"/><path d="M540.48 302.87l-2 .1-.92-19.98 2-.1z"/><path d="M1040 1000h300v104h-300z" fill="#fff"/><path d="M1040 1000h300v104h-300zM1040 1040h300M1094 1040v64M1210 1040v64" stroke="#000" stroke-width="2" fill="none"/><use xlink:href="#J" transform="matrix(1,0,0,1,1050,1000) translate(34.55000000000001 23.6)"/><use xlink:href="#b" transform="matrix(1,0,0,1,1045,1042.5) translate(10 17.1)"/><use xlink:href="#c" transform="matrix(1,0,0,1,1099,1042.5) translate(0 17.1)"/><use xlink:href="#d" transform="matrix(1,0,0,1,1215,1042.5) translate(0 17.1)"/><use xlink:href="#K" transform="matrix(1,0,0,1,1099,1074.5) translate(0 17.1)"/><use xlink:href="#w" transform="matrix(1,0,0,1,1215,1074.5) translate(0 17.1)"/><path d="M1040 764h300v104h-300z" fill="#fff"/><path d="M1040 764h300v104h-300zM1040 804h300M1100 804v64M1220 804v64" stroke="#000" stroke-width="2" fill="none"/><use xlink:href="#L" transform="matrix(1,0,0,1,1050,764) translate(73.55 23.6)"/><use xlink:href="#b" transform="matrix(1,0,0,1,1045,806.5) translate(13 17.1)"/><use xlink:href="#c" transform="matrix(1,0,0,1,1105,806.5) translate(0 17.1)"/><use xlink:href="#d" transform="matrix(1,0,0,1,1225,806.5) translate(0 17.1)"/><use xlink:href="#q" transform="matrix(1,0,0,1,1045,838.5) translate(13.524999999999999 17.1)"/><use xlink:href="#M" transform="matrix(1,0,0,1,1105,838.5) translate(0 17.1)"/><use xlink:href="#N" transform="matrix(1,0,0,1,1225,838.5) translate(0 17.1)"/><path d="M791 784h228" stroke="#000" stroke-width="2" fill="none"/><path fill="#fff"/><path d="M782 794h-2v-20h2z"/><path d="M791 785h-20v-2h20z"/><path fill="#fff"/><path d="M792 794h-2v-20h2z"/><path fill="#fff"/><path d="M1030 794h-2v-20h2z"/><path d="M1039 785h-20v-2h20z"/><path fill="#fff"/><path d="M1020 794h-2v-20h2z"/><path d="M401 852h618" stroke="#000" stroke-width="2" fill="none"/><path fill="#fff"/><path d="M392 862h-2v-20h2z"/><path d="M401 853h-20v-2h20z"/><path fill="#fff"/><path d="M402 862h-2v-20h2z"/><path fill="#fff"/><path d="M1030 862h-2v-20h2z"/><path d="M1039 853h-20v-2h20z"/><path fill="#fff"/><path d="M1020 862h-2v-20h2z"/><path d="M1190 743V160H921" stroke="#000" stroke-width="2" fill="none"/><path fill="#fff"/><path d="M1200 754h-20v-2h20z"/><path d="M1191 763h-2v-20h2z"/><path fill="#fff"/><path d="M1200 744h-20v-2h20z"/><path fill="#fff"/><path d="M912 170h-2v-20h2z"/><path d="M921 161h-20v-2h20z"/><path fill="#fff"/><path d="M922 170h-2v-20h2z"/><path d="M1190 979v-71" stroke="#000" stroke-width="2" fill="none"/><path fill="#fff"/><path d="M1200 990h-20v-2h20z"/><path d="M1191 999h-2v-20h2z"/><path fill="#fff"/><path d="M1200 980h-20v-2h20zM1200.9 869.9l-10.9 21.78-10.9-21.8 1.8-.88 9.1 18.2 9.1-18.2z"/><path d="M1191 889.45h-2v-20h2z"/><path d="M1200 899.45l-.5 3.16-1.43 2.75-2.16 2.17-2.74 1.42-3.16.5-3.16-.5-2.75-1.42-2.17-2.17-1.42-2.74-.5-3.15.5-3.16 1.43-2.76 2.16-2.16 2.74-1.42 3.16-.5 3.16.5 2.75 1.42 2.17 2.16 1.42 2.75.5 3.15z" fill="#fff"/><path d="M1193.48 889l3.02 1.56 2.4 2.38 1.55 3.03.54 3.32-1 .15 1 .16-.55 3.33-1.56 3.02-2.4 2.38-3.02 1.57-3.48.56-3.48-.56-3.02-1.57-2.4-2.38-1.55-3.02-.56-3.48.55-3.48 1.56-3.03 2.4-2.38 3.02-1.56 3.48-.57zm-6.32 1.92l-2.47 1.27-1.95 1.94-1.28 2.46-.46 2.85.47 2.84 1.28 2.46 1.94 1.94 2.46 1.28 2.84.45 2.84-.45 2.47-1.28 1.95-1.94 1.28-2.47.46-2.85-.47-2.85-1.28-2.46-1.94-1.95-2.46-1.28-2.84-.46z"/><path d="M1418.4 784H1361" stroke="#000" stroke-width="2" fill="none"/><path d="M1457.4 774.9l-18.2 9.1 18.2 9.1-.9 1.8-21.78-10.9 21.8-10.9z"/><path d="M1456.95 785h-20v-2h20z"/><path d="M1436.95 784l-.5 3.16-1.43 2.75-2.16 2.17-2.75 1.42-3.15.5-3.16-.5-2.75-1.43-2.17-2.16-1.42-2.74-.5-3.16.5-3.16 1.42-2.75 2.17-2.17 2.74-1.42 3.15-.5 3.16.5 2.76 1.43 2.16 2.16 1.42 2.74.5 3.16z" fill="#fff"/><path d="M1430.43 773.55l3.03 1.56 2.38 2.4 1.56 3.02.54 3.32-1 .16 1 .16-.54 3.32-1.56 3.02-2.38 2.4-3.03 1.55-3.48.56-3.48-.55-3.02-1.56-2.38-2.4-1.57-3.02-.56-3.48.56-3.48 1.57-3.02 2.38-2.4 3.02-1.55 3.48-.56zm-6.32 1.92l-2.46 1.28-1.94 1.94-1.28 2.46-.45 2.84.45 2.84 1.28 2.47 1.94 1.95 2.47 1.28 2.85.46 2.85-.47 2.46-1.28 1.95-1.94 1.28-2.46.46-2.84-.46-2.84-1.27-2.47-1.94-1.95-2.46-1.28-2.85-.46z"/><path fill="#fff"/><path d="M1352 794h-2v-20h2z"/><path d="M1361 785h-20v-2h20z"/><path fill="#fff"/><path d="M1362 794h-2v-20h2z"/><path d="M1418.4 820H1361" stroke="#000" stroke-width="2" fill="none"/><path d="M1457.4 810.9l-18.2 9.1 18.2 9.1-.9 1.8-21.78-10.9 21.8-10.9z"/><path d="M1456.95 821h-20v-2h20z"/><path d="M1436.95 820l-.5 3.16-1.43 2.75-2.16 2.17-2.75 1.42-3.15.5-3.16-.5-2.75-1.43-2.17-2.16-1.42-2.74-.5-3.16.5-3.16 1.42-2.75 2.17-2.17 2.74-1.42 3.15-.5 3.16.5 2.76 1.43 2.16 2.16 1.42 2.74.5 3.16z" fill="#fff"/><path d="M1430.43 809.55l3.03 1.56 2.38 2.4 1.56 3.02.54 3.32-1 .16 1 .16-.54 3.32-1.56 3.02-2.38 2.4-3.03 1.55-3.48.56-3.48-.55-3.02-1.56-2.38-2.4-1.57-3.02-.56-3.48.56-3.48 1.57-3.02 2.38-2.4 3.02-1.55 3.48-.56zm-6.32 1.92l-2.46 1.28-1.94 1.94-1.28 2.46-.45 2.84.45 2.84 1.28 2.47 1.94 1.95 2.47 1.28 2.85.46 2.85-.47 2.46-1.28 1.95-1.94 1.28-2.46.46-2.84-.46-2.84-1.27-2.47-1.94-1.95-2.46-1.28-2.85-.46z"/><path fill="#fff"/><path d="M1352 830h-2v-20h2z"/><path d="M1361 821h-20v-2h20z"/><path fill="#fff"/><path d="M1362 830h-2v-20h2z"/><path d="M820 529.6h340v136H820z" fill="#fff"/><path d="M820 529.6h340v136H820zM820 569.6h340M893.33 569.6v96M1049.33 569.6v96" stroke="#000" stroke-width="2" fill="none"/><use xlink:href="#O" transform="matrix(1,0,0,1,830,529.5999999999999) translate(124.525 23.6)"/><use xlink:href="#n" transform="matrix(1,0,0,1,825,572.0999999999999) translate(3.5249999999999986 17.1)"/><use xlink:href="#o" transform="matrix(1,0,0,1,825,572.0999999999999) translate(37.525 17.1)"/><use xlink:href="#p" transform="matrix(1,0,0,1,898.3333333333333,572.0999999999999) translate(0 17.1)"/><use xlink:href="#d" transform="matrix(1,0,0,1,1054.3333333333333,572.0999999999999) translate(0 17.1)"/><use xlink:href="#q" transform="matrix(1,0,0,1,825,604.0999999999999) translate(20.525 17.1)"/><use xlink:href="#v" transform="matrix(1,0,0,1,898.3333333333333,604.0999999999999) translate(0 17.1)"/><use xlink:href="#d" transform="matrix(1,0,0,1,1054.3333333333333,604.0999999999999) translate(0 17.1)"/><use xlink:href="#P" transform="matrix(1,0,0,1,898.3333333333333,636.0999999999999) translate(0 17.1)"/><use xlink:href="#d" transform="matrix(1,0,0,1,1054.3333333333333,636.0999999999999) translate(0 17.1)"/><path d="M989.96 508.6l-.18-78.37-1.32-21.38-1.62-15.55-1.8-12.2-1.88-9.96-1.96-8.35-1.98-7.13-2-6.18-2.02-5.43-2-4.8-2.03-4.28-2-3.87-2.03-3.5-2.02-3.18-2.02-2.9-2.04-2.7-2.04-2.47-2.07-2.3-2.08-2.12-2.12-1.98-2.14-1.86-2.18-1.73-2.23-1.63-2.3-1.53-2.36-1.42-2.42-1.33-2.5-1.26-2.6-1.16-2.72-1.07-2.84-.98-2.97-.9-3.15-.8-1.5-.32" stroke="#000" stroke-width="2" fill="none"/><path fill="#fff"/><path d="M999.98 519.57l-20 .05v-2l20-.05z"/><path d="M991 528.6h-2l-.04-20h2z"/><path fill="#fff"/><path d="M999.96 509.57l-20 .05v-2l20-.05z"/><path fill="#fff"/><path d="M912.95 283.15l-2 19.9-2-.2 2-19.9z"/><path d="M921 293l-.2 2-19.9-2 .2-2z"/><path fill="#fff"/><path d="M922.9 284.16l-2 19.9-2-.2 2-19.9z"/><path d="M1096 686.6V743" stroke="#000" stroke-width="2" fill="none"/><path fill="#fff"/><path d="M1106 677.6h-20v-2h20z"/><path d="M1097 686.6h-2v-20h2z"/><path fill="#fff"/><path d="M1106 687.6h-20v-2h20z"/><path fill="#fff"/><path d="M1106 754h-20v-2h20z"/><path d="M1097 763h-2v-20h2z"/><path fill="#fff"/><path d="M1106 744h-20v-2h20z"/><defs><path d="M84 4C-5 8 30-112 23-190h32v120c0 31 7 50 39 49 72-2 45-101 50-169h31l1 190h-30c-1-10 1-25-2-33-11 22-28 36-60 37" id="Q"/><path d="M135-143c-3-34-86-38-87 0 15 53 115 12 119 90S17 21 10-45l28-5c4 36 97 45 98 0-10-56-113-15-118-90-4-57 82-63 122-42 12 7 21 19 24 35" id="R"/><path d="M100-194c63 0 86 42 84 106H49c0 40 14 67 53 68 26 1 43-12 49-29l28 8c-11 28-37 45-77 45C44 4 14-33 15-96c1-61 26-98 85-98zm52 81c6-60-76-77-97-28-3 7-6 17-6 28h103" id="S"/><path d="M114-163C36-179 61-72 57 0H25l-1-190h30c1 12-1 29 2 39 6-27 23-49 58-41v29" id="T"/><g id="a"><use transform="matrix(0.05,0,0,0.05,0,0)" xlink:href="#Q"/><use transform="matrix(0.05,0,0,0.05,10,0)" xlink:href="#R"/><use transform="matrix(0.05,0,0,0.05,19,0)" xlink:href="#S"/><use transform="matrix(0.05,0,0,0.05,29,0)" xlink:href="#T"/><use transform="matrix(0.05,0,0,0.05,34.95,0)" xlink:href="#R"/></g><path d="M30-248c87 1 191-15 191 75 0 78-77 80-158 76V0H30v-248zm33 125c57 0 124 11 124-50 0-59-68-47-124-48v98" id="U"/><path d="M194 0L95-120 63-95V0H30v-248h33v124l119-124h40L117-140 236 0h-42" id="V"/><g id="b"><use transform="matrix(0.05,0,0,0.05,0,0)" xlink:href="#U"/><use transform="matrix(0.05,0,0,0.05,12,0)" xlink:href="#V"/></g><path d="M24-231v-30h32v30H24zM24 0v-190h32V0H24" id="W"/><path d="M85-194c31 0 48 13 60 33l-1-100h32l1 261h-30c-2-10 0-23-3-31C134-8 116 4 85 4 32 4 16-35 15-94c0-66 23-100 70-100zm9 24c-40 0-46 34-46 75 0 40 6 74 45 74 42 0 51-32 51-76 0-42-9-74-50-73" id="X"/><g id="c"><use transform="matrix(0.05,0,0,0.05,0,0)" xlink:href="#W"/><use transform="matrix(0.05,0,0,0.05,3.95,0)" xlink:href="#X"/></g><path d="M33 0v-248h34V0H33" id="Y"/><path d="M190 0L58-211 59 0H30v-248h39L202-35l-2-213h31V0h-41" id="Z"/><path d="M127-220V0H93v-220H8v-28h204v28h-85" id="aa"/><path d="M30 0v-248h187v28H63v79h144v27H63v87h162V0H30" id="ab"/><path d="M143 4C61 4 22-44 18-125c-5-107 100-154 193-111 17 8 29 25 37 43l-32 9c-13-25-37-40-76-40-61 0-88 39-88 99 0 61 29 100 91 101 35 0 62-11 79-27v-45h-74v-28h105v86C228-13 192 4 143 4" id="ac"/><path d="M233-177c-1 41-23 64-60 70L243 0h-38l-65-103H63V0H30v-248c88 3 205-21 203 71zM63-129c60-2 137 13 137-47 0-61-80-42-137-45v92" id="ad"/><g id="d"><use transform="matrix(0.05,0,0,0.05,0,0)" xlink:href="#Y"/><use transform="matrix(0.05,0,0,0.05,5,0)" xlink:href="#Z"/><use transform="matrix(0.05,0,0,0.05,17.950000000000003,0)" xlink:href="#aa"/><use transform="matrix(0.05,0,0,0.05,28.900000000000006,0)" xlink:href="#ab"/><use transform="matrix(0.05,0,0,0.05,40.900000000000006,0)" xlink:href="#ac"/><use transform="matrix(0.05,0,0,0.05,54.900000000000006,0)" xlink:href="#ab"/><use transform="matrix(0.05,0,0,0.05,66.9,0)" xlink:href="#ad"/></g><path d="M117-194c89-4 53 116 60 194h-32v-121c0-31-8-49-39-48C34-167 62-67 57 0H25l-1-190h30c1 10-1 24 2 32 11-22 29-35 61-36" id="ae"/><path d="M141-36C126-15 110 5 73 4 37 3 15-17 15-53c-1-64 63-63 125-63 3-35-9-54-41-54-24 1-41 7-42 31l-33-3c5-37 33-52 76-52 45 0 72 20 72 64v82c-1 20 7 32 28 27v20c-31 9-61-2-59-35zM48-53c0 20 12 33 32 33 41-3 63-29 60-74-43 2-92-5-92 41" id="af"/><path d="M210-169c-67 3-38 105-44 169h-31v-121c0-29-5-50-35-48C34-165 62-65 56 0H25l-1-190h30c1 10-1 24 2 32 10-44 99-50 107 0 11-21 27-35 58-36 85-2 47 119 55 194h-31v-121c0-29-5-49-35-48" id="ag"/><g id="e"><use transform="matrix(0.05,0,0,0.05,0,0)" xlink:href="#ae"/><use transform="matrix(0.05,0,0,0.05,10,0)" xlink:href="#af"/><use transform="matrix(0.05,0,0,0.05,20,0)" xlink:href="#ag"/><use transform="matrix(0.05,0,0,0.05,34.95,0)" xlink:href="#S"/></g><path d="M137 0h-34L2-248h35l83 218 83-218h36" id="ah"/><path d="M205 0l-28-72H64L36 0H1l101-248h38L239 0h-34zm-38-99l-47-123c-12 45-31 82-46 123h93" id="ai"/><path d="M212-179c-10-28-35-45-73-45-59 0-87 40-87 99 0 60 29 101 89 101 43 0 62-24 78-52l27 14C228-24 195 4 139 4 59 4 22-46 18-125c-6-104 99-153 187-111 19 9 31 26 39 46" id="aj"/><path d="M197 0v-115H63V0H30v-248h33v105h134v-105h34V0h-34" id="ak"/><path d="M87 75C49 33 22-17 22-94c0-76 28-126 65-167h31c-38 41-64 92-64 168S80 34 118 75H87" id="al"/><path d="M27 0v-27h64v-190l-56 39v-29l58-41h29v221h61V0H27" id="am"/><path d="M101-251c68 0 85 55 85 127S166 4 100 4C33 4 14-52 14-124c0-73 17-127 87-127zm-1 229c47 0 54-49 54-102s-4-102-53-102c-51 0-55 48-55 102 0 53 5 102 54 102" id="an"/><path d="M33-261c38 41 65 92 65 168S71 34 33 75H2C39 34 66-17 66-93S39-220 2-261h31" id="ao"/><g id="f"><use transform="matrix(0.05,0,0,0.05,0,0)" xlink:href="#ah"/><use transform="matrix(0.05,0,0,0.05,10.65,0)" xlink:href="#ai"/><use transform="matrix(0.05,0,0,0.05,22.65,0)" xlink:href="#ad"/><use transform="matrix(0.05,0,0,0.05,35.6,0)" xlink:href="#aj"/><use transform="matrix(0.05,0,0,0.05,48.550000000000004,0)" xlink:href="#ak"/><use transform="matrix(0.05,0,0,0.05,61.5,0)" xlink:href="#ai"/><use transform="matrix(0.05,0,0,0.05,73.5,0)" xlink:href="#ad"/><use transform="matrix(0.05,0,0,0.05,86.45,0)" xlink:href="#al"/><use transform="matrix(0.05,0,0,0.05,92.4,0)" xlink:href="#am"/><use transform="matrix(0.05,0,0,0.05,102.4,0)" xlink:href="#an"/><use transform="matrix(0.05,0,0,0.05,112.4,0)" xlink:href="#an"/><use transform="matrix(0.05,0,0,0.05,122.4,0)" xlink:href="#ao"/></g><path d="M24 0v-261h32V0H24" id="ap"/><g id="g"><use transform="matrix(0.05,0,0,0.05,0,0)" xlink:href="#S"/><use transform="matrix(0.05,0,0,0.05,10,0)" xlink:href="#ag"/><use transform="matrix(0.05,0,0,0.05,24.950000000000003,0)" xlink:href="#af"/><use transform="matrix(0.05,0,0,0.05,34.95,0)" xlink:href="#W"/><use transform="matrix(0.05,0,0,0.05,38.900000000000006,0)" xlink:href="#ap"/></g><path d="M115-194c55 1 70 41 70 98S169 2 115 4C84 4 66-9 55-30l1 105H24l-1-265h31l2 30c10-21 28-34 59-34zm-8 174c40 0 45-34 45-75s-6-73-45-74c-42 0-51 32-51 76 0 43 10 73 51 73" id="aq"/><path d="M206 0h-36l-40-164L89 0H53L-1-190h32L70-26l43-164h34l41 164 42-164h31" id="ar"/><path d="M100-194c62-1 85 37 85 99 1 63-27 99-86 99S16-35 15-95c0-66 28-99 85-99zM99-20c44 1 53-31 53-75 0-43-8-75-51-75s-53 32-53 75 10 74 51 75" id="as"/><g id="h"><use transform="matrix(0.05,0,0,0.05,0,0)" xlink:href="#aq"/><use transform="matrix(0.05,0,0,0.05,10,0)" xlink:href="#af"/><use transform="matrix(0.05,0,0,0.05,20,0)" xlink:href="#R"/><use transform="matrix(0.05,0,0,0.05,29,0)" xlink:href="#R"/><use transform="matrix(0.05,0,0,0.05,38,0)" xlink:href="#ar"/><use transform="matrix(0.05,0,0,0.05,50.95,0)" xlink:href="#as"/><use transform="matrix(0.05,0,0,0.05,60.95,0)" xlink:href="#T"/><use transform="matrix(0.05,0,0,0.05,66.9,0)" xlink:href="#X"/></g><path d="M177-190C167-65 218 103 67 71c-23-6-38-20-44-43l32-5c15 47 100 32 89-28v-30C133-14 115 1 83 1 29 1 15-40 15-95c0-56 16-97 71-98 29-1 48 16 59 35 1-10 0-23 2-32h30zM94-22c36 0 50-32 50-73 0-42-14-75-50-75-39 0-46 34-46 75s6 73 46 73" id="at"/><path d="M59-47c-2 24 18 29 38 22v24C64 9 27 4 27-40v-127H5v-23h24l9-43h21v43h35v23H59v120" id="au"/><path d="M-5 72V49h209v23H-5" id="av"/><g id="i"><use transform="matrix(0.05,0,0,0.05,0,0)" xlink:href="#T"/><use transform="matrix(0.05,0,0,0.05,5.95,0)" xlink:href="#S"/><use transform="matrix(0.05,0,0,0.05,15.949999999999998,0)" xlink:href="#at"/><use transform="matrix(0.05,0,0,0.05,25.950000000000003,0)" xlink:href="#W"/><use transform="matrix(0.05,0,0,0.05,29.899999999999995,0)" xlink:href="#R"/><use transform="matrix(0.05,0,0,0.05,38.9,0)" xlink:href="#au"/><use transform="matrix(0.05,0,0,0.05,43.9,0)" xlink:href="#T"/><use transform="matrix(0.05,0,0,0.05,49.85,0)" xlink:href="#af"/><use transform="matrix(0.05,0,0,0.05,59.85,0)" xlink:href="#au"/><use transform="matrix(0.05,0,0,0.05,64.85,0)" xlink:href="#W"/><use transform="matrix(0.05,0,0,0.05,68.8,0)" xlink:href="#as"/><use transform="matrix(0.05,0,0,0.05,78.8,0)" xlink:href="#ae"/><use transform="matrix(0.05,0,0,0.05,88.8,0)" xlink:href="#av"/><use transform="matrix(0.05,0,0,0.05,98.8,0)" xlink:href="#X"/><use transform="matrix(0.05,0,0,0.05,108.80000000000001,0)" xlink:href="#af"/><use transform="matrix(0.05,0,0,0.05,118.80000000000001,0)" xlink:href="#au"/><use transform="matrix(0.05,0,0,0.05,123.80000000000001,0)" xlink:href="#S"/></g><path d="M240 0l2-218c-23 76-54 145-80 218h-23L58-218 59 0H30v-248h44l77 211c21-75 51-140 76-211h43V0h-30" id="aw"/><path d="M185-189c-5-48-123-54-124 2 14 75 158 14 163 119 3 78-121 87-175 55-17-10-28-26-33-46l33-7c5 56 141 63 141-1 0-78-155-14-162-118-5-82 145-84 179-34 5 7 8 16 11 25" id="ax"/><g id="j"><use transform="matrix(0.05,0,0,0.05,0,0)" xlink:href="#aa"/><use transform="matrix(0.05,0,0,0.05,10.950000000000001,0)" xlink:href="#Y"/><use transform="matrix(0.05,0,0,0.05,15.950000000000001,0)" xlink:href="#aw"/><use transform="matrix(0.05,0,0,0.05,30.900000000000002,0)" xlink:href="#ab"/><use transform="matrix(0.05,0,0,0.05,42.900000000000006,0)" xlink:href="#ax"/><use transform="matrix(0.05,0,0,0.05,54.900000000000006,0)" xlink:href="#aa"/><use transform="matrix(0.05,0,0,0.05,64.5,0)" xlink:href="#ai"/><use transform="matrix(0.05,0,0,0.05,76.5,0)" xlink:href="#aw"/><use transform="matrix(0.05,0,0,0.05,91.45,0)" xlink:href="#U"/></g><path d="M96-169c-40 0-48 33-48 73s9 75 48 75c24 0 41-14 43-38l32 2c-6 37-31 61-74 61-59 0-76-41-82-99-10-93 101-131 147-64 4 7 5 14 7 22l-32 3c-4-21-16-35-41-35" id="ay"/><path d="M108 0H70L1-190h34L89-25l56-165h34" id="az"/><g id="k"><use transform="matrix(0.05,0,0,0.05,0,0)" xlink:href="#W"/><use transform="matrix(0.05,0,0,0.05,3.95,0)" xlink:href="#R"/><use transform="matrix(0.05,0,0,0.05,12.949999999999998,0)" xlink:href="#av"/><use transform="matrix(0.05,0,0,0.05,22.95,0)" xlink:href="#af"/><use transform="matrix(0.05,0,0,0.05,32.95,0)" xlink:href="#ay"/><use transform="matrix(0.05,0,0,0.05,41.95,0)" xlink:href="#au"/><use transform="matrix(0.05,0,0,0.05,46.95,0)" xlink:href="#W"/><use transform="matrix(0.05,0,0,0.05,50.900000000000006,0)" xlink:href="#az"/><use transform="matrix(0.05,0,0,0.05,59.900000000000006,0)" xlink:href="#S"/></g><path d="M160-131c35 5 61 23 61 61C221 17 115-2 30 0v-248c76 3 177-17 177 60 0 33-19 50-47 57zm-97-11c50-1 110 9 110-42 0-47-63-36-110-37v79zm0 115c55-2 124 14 124-45 0-56-70-42-124-44v89" id="aA"/><path d="M140-251c81 0 123 46 123 126C263-46 219 4 140 4 59 4 17-45 17-125s42-126 123-126zm0 227c63 0 89-41 89-101s-29-99-89-99c-61 0-89 39-89 99S79-25 140-24" id="aB"/><path d="M30 0v-248h33v221h125V0H30" id="aC"/><g id="l"><use transform="matrix(0.05,0,0,0.05,0,0)" xlink:href="#aA"/><use transform="matrix(0.05,0,0,0.05,12,0)" xlink:href="#aB"/><use transform="matrix(0.05,0,0,0.05,26,0)" xlink:href="#aB"/><use transform="matrix(0.05,0,0,0.05,40,0)" xlink:href="#aC"/><use transform="matrix(0.05,0,0,0.05,50,0)" xlink:href="#ab"/><use transform="matrix(0.05,0,0,0.05,62,0)" xlink:href="#ai"/><use transform="matrix(0.05,0,0,0.05,74,0)" xlink:href="#Z"/></g><g id="m"><use transform="matrix(0.05,0,0,0.05,0,0)" xlink:href="#R"/><use transform="matrix(0.05,0,0,0.05,9,0)" xlink:href="#af"/><use transform="matrix(0.05,0,0,0.05,19,0)" xlink:href="#az"/><use transform="matrix(0.05,0,0,0.05,28,0)" xlink:href="#W"/><use transform="matrix(0.05,0,0,0.05,31.950000000000003,0)" xlink:href="#ae"/><use transform="matrix(0.05,0,0,0.05,41.95,0)" xlink:href="#at"/><use transform="matrix(0.05,0,0,0.05,51.95,0)" xlink:href="#R"/><use transform="matrix(0.05,0,0,0.05,60.95,0)" xlink:href="#av"/><use transform="matrix(0.05,0,0,0.05,70.95,0)" xlink:href="#af"/><use transform="matrix(0.05,0,0,0.05,80.95,0)" xlink:href="#ay"/><use transform="matrix(0.05,0,0,0.05,89.95,0)" xlink:href="#ay"/><use transform="matrix(0.05,0,0,0.05,98.95,0)" xlink:href="#as"/><use transform="matrix(0.05,0,0,0.05,108.95,0)" xlink:href="#Q"/><use transform="matrix(0.05,0,0,0.05,118.95,0)" xlink:href="#ae"/><use transform="matrix(0.05,0,0,0.05,128.95,0)" xlink:href="#au"/><use transform="matrix(0.05,0,0,0.05,133.95,0)" xlink:href="#R"/></g><path d="M68-38c1 34 0 65-14 84H32c9-13 17-26 17-46H33v-38h35" id="aD"/><g id="n"><use transform="matrix(0.05,0,0,0.05,0,0)" xlink:href="#U"/><use transform="matrix(0.05,0,0,0.05,12,0)" xlink:href="#V"/><use transform="matrix(0.05,0,0,0.05,24,0)" xlink:href="#aD"/></g><path d="M63-220v92h138v28H63V0H30v-248h175v28H63" id="aE"/><g id="o"><use transform="matrix(0.05,0,0,0.05,0,0)" xlink:href="#aE"/><use transform="matrix(0.05,0,0,0.05,10.950000000000001,0)" xlink:href="#V"/></g><g id="p"><use transform="matrix(0.05,0,0,0.05,0,0)" xlink:href="#R"/><use transform="matrix(0.05,0,0,0.05,9,0)" xlink:href="#au"/><use transform="matrix(0.05,0,0,0.05,14,0)" xlink:href="#as"/><use transform="matrix(0.05,0,0,0.05,24,0)" xlink:href="#T"/><use transform="matrix(0.05,0,0,0.05,29.950000000000003,0)" xlink:href="#af"/><use transform="matrix(0.05,0,0,0.05,39.95,0)" xlink:href="#at"/><use transform="matrix(0.05,0,0,0.05,49.95,0)" xlink:href="#S"/><use transform="matrix(0.05,0,0,0.05,59.95,0)" xlink:href="#av"/><use transform="matrix(0.05,0,0,0.05,69.95,0)" xlink:href="#W"/><use transform="matrix(0.05,0,0,0.05,73.9,0)" xlink:href="#X"/></g><g id="q"><use transform="matrix(0.05,0,0,0.05,0,0)" xlink:href="#aE"/><use transform="matrix(0.05,0,0,0.05,10.950000000000001,0)" xlink:href="#V"/></g><g id="r"><use transform="matrix(0.05,0,0,0.05,0,0)" xlink:href="#Q"/><use transform="matrix(0.05,0,0,0.05,10,0)" xlink:href="#R"/><use transform="matrix(0.05,0,0,0.05,19,0)" xlink:href="#S"/><use transform="matrix(0.05,0,0,0.05,29,0)" xlink:href="#T"/><use transform="matrix(0.05,0,0,0.05,34.95,0)" xlink:href="#av"/><use transform="matrix(0.05,0,0,0.05,44.95,0)" xlink:href="#W"/><use transform="matrix(0.05,0,0,0.05,48.900000000000006,0)" xlink:href="#X"/></g><path d="M115-194c53 0 69 39 70 98 0 66-23 100-70 100C84 3 66-7 56-30L54 0H23l1-261h32v101c10-23 28-34 59-34zm-8 174c40 0 45-34 45-75 0-40-5-75-45-74-42 0-51 32-51 76 0 43 10 73 51 73" id="aF"/><path d="M179-190L93 31C79 59 56 82 12 73V49c39 6 53-20 64-50L1-190h34L92-34l54-156h33" id="aG"/><g id="s"><use transform="matrix(0.05,0,0,0.05,0,0)" xlink:href="#af"/><use transform="matrix(0.05,0,0,0.05,10,0)" xlink:href="#az"/><use transform="matrix(0.05,0,0,0.05,19,0)" xlink:href="#af"/><use transform="matrix(0.05,0,0,0.05,29,0)" xlink:href="#W"/><use transform="matrix(0.05,0,0,0.05,32.95,0)" xlink:href="#ap"/><use transform="matrix(0.05,0,0,0.05,36.900000000000006,0)" xlink:href="#af"/><use transform="matrix(0.05,0,0,0.05,46.900000000000006,0)" xlink:href="#aF"/><use transform="matrix(0.05,0,0,0.05,56.900000000000006,0)" xlink:href="#ap"/><use transform="matrix(0.05,0,0,0.05,60.85,0)" xlink:href="#S"/><use transform="matrix(0.05,0,0,0.05,70.85000000000001,0)" xlink:href="#av"/><use transform="matrix(0.05,0,0,0.05,80.85000000000001,0)" xlink:href="#ag"/><use transform="matrix(0.05,0,0,0.05,95.80000000000001,0)" xlink:href="#as"/><use transform="matrix(0.05,0,0,0.05,105.80000000000001,0)" xlink:href="#ae"/><use transform="matrix(0.05,0,0,0.05,115.80000000000001,0)" xlink:href="#S"/><use transform="matrix(0.05,0,0,0.05,125.80000000000001,0)" xlink:href="#aG"/></g><g id="t"><use transform="matrix(0.05,0,0,0.05,0,0)" xlink:href="#au"/><use transform="matrix(0.05,0,0,0.05,5,0)" xlink:href="#as"/><use transform="matrix(0.05,0,0,0.05,15,0)" xlink:href="#au"/><use transform="matrix(0.05,0,0,0.05,20,0)" xlink:href="#af"/><use transform="matrix(0.05,0,0,0.05,30,0)" xlink:href="#ap"/><use transform="matrix(0.05,0,0,0.05,33.95,0)" xlink:href="#av"/><use transform="matrix(0.05,0,0,0.05,43.95,0)" xlink:href="#ag"/><use transform="matrix(0.05,0,0,0.05,58.900000000000006,0)" xlink:href="#as"/><use transform="matrix(0.05,0,0,0.05,68.9,0)" xlink:href="#ae"/><use transform="matrix(0.05,0,0,0.05,78.9,0)" xlink:href="#S"/><use transform="matrix(0.05,0,0,0.05,88.9,0)" xlink:href="#aG"/></g><path d="M143 0L79-87 56-68V0H24v-261h32v163l83-92h37l-77 82L181 0h-38" id="aH"/><g id="u"><use transform="matrix(0.05,0,0,0.05,0,0)" xlink:href="#aq"/><use transform="matrix(0.05,0,0,0.05,10,0)" xlink:href="#as"/><use transform="matrix(0.05,0,0,0.05,20,0)" xlink:href="#ay"/><use transform="matrix(0.05,0,0,0.05,29,0)" xlink:href="#aH"/><use transform="matrix(0.05,0,0,0.05,38,0)" xlink:href="#S"/><use transform="matrix(0.05,0,0,0.05,48,0)" xlink:href="#au"/><use transform="matrix(0.05,0,0,0.05,53,0)" xlink:href="#R"/></g><g id="v"><use transform="matrix(0.05,0,0,0.05,0,0)" xlink:href="#af"/><use transform="matrix(0.05,0,0,0.05,10,0)" xlink:href="#ay"/><use transform="matrix(0.05,0,0,0.05,19,0)" xlink:href="#ay"/><use transform="matrix(0.05,0,0,0.05,28,0)" xlink:href="#as"/><use transform="matrix(0.05,0,0,0.05,38,0)" xlink:href="#Q"/><use transform="matrix(0.05,0,0,0.05,48,0)" xlink:href="#ae"/><use transform="matrix(0.05,0,0,0.05,58,0)" xlink:href="#au"/><use transform="matrix(0.05,0,0,0.05,63,0)" xlink:href="#av"/><use transform="matrix(0.05,0,0,0.05,73,0)" xlink:href="#W"/><use transform="matrix(0.05,0,0,0.05,76.95,0)" xlink:href="#X"/></g><path d="M126-127c33 6 58 20 58 59 0 88-139 92-164 29-3-8-5-16-6-25l32-3c6 27 21 44 54 44 32 0 52-15 52-46 0-38-36-46-79-43v-28c39 1 72-4 72-42 0-27-17-43-46-43-28 0-47 15-49 41l-32-3c6-42 35-63 81-64 48-1 79 21 79 65 0 36-21 52-52 59" id="aI"/><g id="w"><use transform="matrix(0.05,0,0,0.05,0,0)" xlink:href="#ah"/><use transform="matrix(0.05,0,0,0.05,10.65,0)" xlink:href="#ai"/><use transform="matrix(0.05,0,0,0.05,22.65,0)" xlink:href="#ad"/><use transform="matrix(0.05,0,0,0.05,35.6,0)" xlink:href="#aj"/><use transform="matrix(0.05,0,0,0.05,48.550000000000004,0)" xlink:href="#ak"/><use transform="matrix(0.05,0,0,0.05,61.5,0)" xlink:href="#ai"/><use transform="matrix(0.05,0,0,0.05,73.5,0)" xlink:href="#ad"/><use transform="matrix(0.05,0,0,0.05,86.45,0)" xlink:href="#al"/><use transform="matrix(0.05,0,0,0.05,92.4,0)" xlink:href="#aI"/><use transform="matrix(0.05,0,0,0.05,102.4,0)" xlink:href="#an"/><use transform="matrix(0.05,0,0,0.05,112.4,0)" xlink:href="#ao"/></g><g id="x"><use transform="matrix(0.05,0,0,0.05,0,0)" xlink:href="#R"/><use transform="matrix(0.05,0,0,0.05,9,0)" xlink:href="#af"/><use transform="matrix(0.05,0,0,0.05,19,0)" xlink:href="#az"/><use transform="matrix(0.05,0,0,0.05,28,0)" xlink:href="#S"/><use transform="matrix(0.05,0,0,0.05,38,0)" xlink:href="#X"/><use transform="matrix(0.05,0,0,0.05,48,0)" xlink:href="#av"/><use transform="matrix(0.05,0,0,0.05,58,0)" xlink:href="#ag"/><use transform="matrix(0.05,0,0,0.05,72.95,0)" xlink:href="#as"/><use transform="matrix(0.05,0,0,0.05,82.95,0)" xlink:href="#ae"/><use transform="matrix(0.05,0,0,0.05,92.95,0)" xlink:href="#S"/><use transform="matrix(0.05,0,0,0.05,102.95,0)" xlink:href="#aG"/></g><g id="y"><use transform="matrix(0.05,0,0,0.05,0,0)" xlink:href="#ay"/><use transform="matrix(0.05,0,0,0.05,9,0)" xlink:href="#T"/><use transform="matrix(0.05,0,0,0.05,14.949999999999998,0)" xlink:href="#S"/><use transform="matrix(0.05,0,0,0.05,24.95,0)" xlink:href="#af"/><use transform="matrix(0.05,0,0,0.05,34.95,0)" xlink:href="#au"/><use transform="matrix(0.05,0,0,0.05,39.95,0)" xlink:href="#S"/><use transform="matrix(0.05,0,0,0.05,49.95,0)" xlink:href="#X"/><use transform="matrix(0.05,0,0,0.05,59.95,0)" xlink:href="#av"/><use transform="matrix(0.05,0,0,0.05,69.95,0)" xlink:href="#af"/><use transform="matrix(0.05,0,0,0.05,79.95,0)" xlink:href="#au"/></g><g id="z"><use transform="matrix(0.05,0,0,0.05,0,0)" xlink:href="#X"/><use transform="matrix(0.05,0,0,0.05,10,0)" xlink:href="#S"/><use transform="matrix(0.05,0,0,0.05,20,0)" xlink:href="#ap"/><use transform="matrix(0.05,0,0,0.05,23.95,0)" xlink:href="#S"/><use transform="matrix(0.05,0,0,0.05,33.95,0)" xlink:href="#au"/><use transform="matrix(0.05,0,0,0.05,38.95,0)" xlink:href="#S"/><use transform="matrix(0.05,0,0,0.05,48.95,0)" xlink:href="#X"/><use transform="matrix(0.05,0,0,0.05,58.95,0)" xlink:href="#av"/><use transform="matrix(0.05,0,0,0.05,68.95,0)" xlink:href="#af"/><use transform="matrix(0.05,0,0,0.05,78.95,0)" xlink:href="#au"/></g><g id="A"><use transform="matrix(0.05,0,0,0.05,0,0)" xlink:href="#at"/><use transform="matrix(0.05,0,0,0.05,10,0)" xlink:href="#as"/><use transform="matrix(0.05,0,0,0.05,20,0)" xlink:href="#af"/><use transform="matrix(0.05,0,0,0.05,30,0)" xlink:href="#ap"/><use transform="matrix(0.05,0,0,0.05,33.95,0)" xlink:href="#R"/></g><g id="B"><use transform="matrix(0.05,0,0,0.05,0,0)" xlink:href="#au"/><use transform="matrix(0.05,0,0,0.05,5,0)" xlink:href="#af"/><use transform="matrix(0.05,0,0,0.05,15,0)" xlink:href="#T"/><use transform="matrix(0.05,0,0,0.05,20.95,0)" xlink:href="#at"/><use transform="matrix(0.05,0,0,0.05,30.950000000000003,0)" xlink:href="#S"/><use transform="matrix(0.05,0,0,0.05,40.95,0)" xlink:href="#au"/><use transform="matrix(0.05,0,0,0.05,45.95,0)" xlink:href="#av"/><use transform="matrix(0.05,0,0,0.05,55.95,0)" xlink:href="#X"/><use transform="matrix(0.05,0,0,0.05,65.95,0)" xlink:href="#af"/><use transform="matrix(0.05,0,0,0.05,75.95,0)" xlink:href="#au"/><use transform="matrix(0.05,0,0,0.05,80.95,0)" xlink:href="#S"/></g><path d="M30-248c118-7 216 8 213 122C240-48 200 0 122 0H30v-248zM63-27c89 8 146-16 146-99s-60-101-146-95v194" id="aJ"/><g id="C"><use transform="matrix(0.05,0,0,0.05,0,0)" xlink:href="#aJ"/><use transform="matrix(0.05,0,0,0.05,12.950000000000001,0)" xlink:href="#ai"/><use transform="matrix(0.05,0,0,0.05,23.6,0)" xlink:href="#aa"/><use transform="matrix(0.05,0,0,0.05,34.550000000000004,0)" xlink:href="#ab"/></g><g id="D"><use transform="matrix(0.05,0,0,0.05,0,0)" xlink:href="#au"/><use transform="matrix(0.05,0,0,0.05,5,0)" xlink:href="#af"/><use transform="matrix(0.05,0,0,0.05,15,0)" xlink:href="#T"/><use transform="matrix(0.05,0,0,0.05,20.95,0)" xlink:href="#at"/><use transform="matrix(0.05,0,0,0.05,30.950000000000003,0)" xlink:href="#S"/><use transform="matrix(0.05,0,0,0.05,40.95,0)" xlink:href="#au"/><use transform="matrix(0.05,0,0,0.05,45.95,0)" xlink:href="#av"/><use transform="matrix(0.05,0,0,0.05,55.95,0)" xlink:href="#ag"/><use transform="matrix(0.05,0,0,0.05,70.9,0)" xlink:href="#as"/><use transform="matrix(0.05,0,0,0.05,80.9,0)" xlink:href="#ae"/><use transform="matrix(0.05,0,0,0.05,90.9,0)" xlink:href="#S"/><use transform="matrix(0.05,0,0,0.05,100.9,0)" xlink:href="#aG"/></g><path d="M106-169C34-169 62-67 57 0H25v-261h32l-1 103c12-21 28-36 61-36 89 0 53 116 60 194h-32v-121c2-32-8-49-39-48" id="aK"/><g id="E"><use transform="matrix(0.05,0,0,0.05,0,0)" xlink:href="#ar"/><use transform="matrix(0.05,0,0,0.05,12.950000000000001,0)" xlink:href="#af"/><use transform="matrix(0.05,0,0,0.05,22.950000000000003,0)" xlink:href="#R"/><use transform="matrix(0.05,0,0,0.05,31.950000000000003,0)" xlink:href="#av"/><use transform="matrix(0.05,0,0,0.05,41.95,0)" xlink:href="#af"/><use transform="matrix(0.05,0,0,0.05,51.95,0)" xlink:href="#ay"/><use transform="matrix(0.05,0,0,0.05,60.95,0)" xlink:href="#aK"/><use transform="matrix(0.05,0,0,0.05,70.95,0)" xlink:href="#W"/><use transform="matrix(0.05,0,0,0.05,74.9,0)" xlink:href="#S"/><use transform="matrix(0.05,0,0,0.05,84.9,0)" xlink:href="#az"/><use transform="matrix(0.05,0,0,0.05,93.9,0)" xlink:href="#S"/><use transform="matrix(0.05,0,0,0.05,103.9,0)" xlink:href="#X"/></g><g id="F"><use transform="matrix(0.05,0,0,0.05,0,0)" xlink:href="#au"/><use transform="matrix(0.05,0,0,0.05,5,0)" xlink:href="#T"/><use transform="matrix(0.05,0,0,0.05,10.95,0)" xlink:href="#af"/><use transform="matrix(0.05,0,0,0.05,20.95,0)" xlink:href="#ae"/><use transform="matrix(0.05,0,0,0.05,30.950000000000003,0)" xlink:href="#R"/><use transform="matrix(0.05,0,0,0.05,39.95,0)" xlink:href="#af"/><use transform="matrix(0.05,0,0,0.05,49.95,0)" xlink:href="#ay"/><use transform="matrix(0.05,0,0,0.05,58.95,0)" xlink:href="#au"/><use transform="matrix(0.05,0,0,0.05,63.95,0)" xlink:href="#W"/><use transform="matrix(0.05,0,0,0.05,67.9,0)" xlink:href="#as"/><use transform="matrix(0.05,0,0,0.05,77.9,0)" xlink:href="#ae"/><use transform="matrix(0.05,0,0,0.05,87.9,0)" xlink:href="#R"/></g><g id="G"><use transform="matrix(0.05,0,0,0.05,0,0)" xlink:href="#R"/><use transform="matrix(0.05,0,0,0.05,9,0)" xlink:href="#as"/><use transform="matrix(0.05,0,0,0.05,19,0)" xlink:href="#Q"/><use transform="matrix(0.05,0,0,0.05,29,0)" xlink:href="#T"/><use transform="matrix(0.05,0,0,0.05,34.95,0)" xlink:href="#ay"/><use transform="matrix(0.05,0,0,0.05,43.95,0)" xlink:href="#S"/><use transform="matrix(0.05,0,0,0.05,53.95,0)" xlink:href="#av"/><use transform="matrix(0.05,0,0,0.05,63.95,0)" xlink:href="#R"/><use transform="matrix(0.05,0,0,0.05,72.95,0)" xlink:href="#au"/><use transform="matrix(0.05,0,0,0.05,77.95,0)" xlink:href="#as"/><use transform="matrix(0.05,0,0,0.05,87.95,0)" xlink:href="#T"/><use transform="matrix(0.05,0,0,0.05,93.9,0)" xlink:href="#af"/><use transform="matrix(0.05,0,0,0.05,103.9,0)" xlink:href="#at"/><use transform="matrix(0.05,0,0,0.05,113.9,0)" xlink:href="#S"/><use transform="matrix(0.05,0,0,0.05,123.9,0)" xlink:href="#av"/><use transform="matrix(0.05,0,0,0.05,133.9,0)" xlink:href="#W"/><use transform="matrix(0.05,0,0,0.05,137.85,0)" xlink:href="#X"/></g><g id="H"><use transform="matrix(0.05,0,0,0.05,0,0)" xlink:href="#X"/><use transform="matrix(0.05,0,0,0.05,10,0)" xlink:href="#S"/><use transform="matrix(0.05,0,0,0.05,20,0)" xlink:href="#R"/><use transform="matrix(0.05,0,0,0.05,29,0)" xlink:href="#au"/><use transform="matrix(0.05,0,0,0.05,34,0)" xlink:href="#W"/><use transform="matrix(0.05,0,0,0.05,37.95,0)" xlink:href="#ae"/><use transform="matrix(0.05,0,0,0.05,47.95,0)" xlink:href="#af"/><use transform="matrix(0.05,0,0,0.05,57.95,0)" xlink:href="#au"/><use transform="matrix(0.05,0,0,0.05,62.95,0)" xlink:href="#W"/><use transform="matrix(0.05,0,0,0.05,66.9,0)" xlink:href="#as"/><use transform="matrix(0.05,0,0,0.05,76.9,0)" xlink:href="#ae"/><use transform="matrix(0.05,0,0,0.05,86.9,0)" xlink:href="#av"/><use transform="matrix(0.05,0,0,0.05,96.9,0)" xlink:href="#R"/><use transform="matrix(0.05,0,0,0.05,105.9,0)" xlink:href="#au"/><use transform="matrix(0.05,0,0,0.05,110.9,0)" xlink:href="#as"/><use transform="matrix(0.05,0,0,0.05,120.9,0)" xlink:href="#T"/><use transform="matrix(0.05,0,0,0.05,126.85000000000001,0)" xlink:href="#af"/><use transform="matrix(0.05,0,0,0.05,136.85000000000002,0)" xlink:href="#at"/><use transform="matrix(0.05,0,0,0.05,146.85000000000002,0)" xlink:href="#S"/><use transform="matrix(0.05,0,0,0.05,156.85000000000002,0)" xlink:href="#av"/><use transform="matrix(0.05,0,0,0.05,166.85000000000002,0)" xlink:href="#W"/><use transform="matrix(0.05,0,0,0.05,170.8,0)" xlink:href="#X"/></g><path d="M101-234c-31-9-42 10-38 44h38v23H63V0H32v-167H5v-23h27c-7-52 17-82 69-68v24" id="aL"/><g id="I"><use transform="matrix(0.05,0,0,0.05,0,0)" xlink:href="#ag"/><use transform="matrix(0.05,0,0,0.05,14.950000000000001,0)" xlink:href="#as"/><use transform="matrix(0.05,0,0,0.05,24.950000000000003,0)" xlink:href="#ae"/><use transform="matrix(0.05,0,0,0.05,34.95,0)" xlink:href="#S"/><use transform="matrix(0.05,0,0,0.05,44.95,0)" xlink:href="#aG"/><use transform="matrix(0.05,0,0,0.05,53.95,0)" xlink:href="#av"/><use transform="matrix(0.05,0,0,0.05,63.95,0)" xlink:href="#au"/><use transform="matrix(0.05,0,0,0.05,68.95,0)" xlink:href="#T"/><use transform="matrix(0.05,0,0,0.05,74.9,0)" xlink:href="#af"/><use transform="matrix(0.05,0,0,0.05,84.9,0)" xlink:href="#ae"/><use transform="matrix(0.05,0,0,0.05,94.9,0)" xlink:href="#R"/><use transform="matrix(0.05,0,0,0.05,103.9,0)" xlink:href="#aL"/><use transform="matrix(0.05,0,0,0.05,108.9,0)" xlink:href="#S"/><use transform="matrix(0.05,0,0,0.05,118.9,0)" xlink:href="#T"/><use transform="matrix(0.05,0,0,0.05,124.85000000000001,0)" xlink:href="#T"/><use transform="matrix(0.05,0,0,0.05,130.8,0)" xlink:href="#S"/><use transform="matrix(0.05,0,0,0.05,140.8,0)" xlink:href="#X"/></g><g id="J"><use transform="matrix(0.05,0,0,0.05,0,0)" xlink:href="#au"/><use transform="matrix(0.05,0,0,0.05,5,0)" xlink:href="#aG"/><use transform="matrix(0.05,0,0,0.05,14,0)" xlink:href="#aq"/><use transform="matrix(0.05,0,0,0.05,24,0)" xlink:href="#S"/><use transform="matrix(0.05,0,0,0.05,34,0)" xlink:href="#R"/><use transform="matrix(0.05,0,0,0.05,43,0)" xlink:href="#av"/><use transform="matrix(0.05,0,0,0.05,53,0)" xlink:href="#as"/><use transform="matrix(0.05,0,0,0.05,63,0)" xlink:href="#aL"/><use transform="matrix(0.05,0,0,0.05,68,0)" xlink:href="#av"/><use transform="matrix(0.05,0,0,0.05,78,0)" xlink:href="#ag"/><use transform="matrix(0.05,0,0,0.05,92.95,0)" xlink:href="#as"/><use transform="matrix(0.05,0,0,0.05,102.95,0)" xlink:href="#ae"/><use transform="matrix(0.05,0,0,0.05,112.95,0)" xlink:href="#S"/><use transform="matrix(0.05,0,0,0.05,122.95,0)" xlink:href="#aG"/><use transform="matrix(0.05,0,0,0.05,131.95,0)" xlink:href="#av"/><use transform="matrix(0.05,0,0,0.05,141.95,0)" xlink:href="#R"/><use transform="matrix(0.05,0,0,0.05,150.95,0)" xlink:href="#au"/><use transform="matrix(0.05,0,0,0.05,155.95,0)" xlink:href="#as"/><use transform="matrix(0.05,0,0,0.05,165.95,0)" xlink:href="#T"/><use transform="matrix(0.05,0,0,0.05,171.89999999999998,0)" xlink:href="#af"/><use transform="matrix(0.05,0,0,0.05,181.89999999999998,0)" xlink:href="#at"/><use transform="matrix(0.05,0,0,0.05,191.89999999999998,0)" xlink:href="#S"/><use transform="matrix(0.05,0,0,0.05,201.89999999999998,0)" xlink:href="#R"/></g><g id="K"><use transform="matrix(0.05,0,0,0.05,0,0)" xlink:href="#au"/><use transform="matrix(0.05,0,0,0.05,5,0)" xlink:href="#aG"/><use transform="matrix(0.05,0,0,0.05,14,0)" xlink:href="#aq"/><use transform="matrix(0.05,0,0,0.05,24,0)" xlink:href="#S"/><use transform="matrix(0.05,0,0,0.05,34,0)" xlink:href="#av"/><use transform="matrix(0.05,0,0,0.05,44,0)" xlink:href="#ae"/><use transform="matrix(0.05,0,0,0.05,54,0)" xlink:href="#af"/><use transform="matrix(0.05,0,0,0.05,64,0)" xlink:href="#ag"/><use transform="matrix(0.05,0,0,0.05,78.95,0)" xlink:href="#S"/></g><g id="L"><use transform="matrix(0.05,0,0,0.05,0,0)" xlink:href="#ag"/><use transform="matrix(0.05,0,0,0.05,14.950000000000001,0)" xlink:href="#as"/><use transform="matrix(0.05,0,0,0.05,24.950000000000003,0)" xlink:href="#ae"/><use transform="matrix(0.05,0,0,0.05,34.95,0)" xlink:href="#S"/><use transform="matrix(0.05,0,0,0.05,44.95,0)" xlink:href="#aG"/><use transform="matrix(0.05,0,0,0.05,53.95,0)" xlink:href="#av"/><use transform="matrix(0.05,0,0,0.05,63.95,0)" xlink:href="#R"/><use transform="matrix(0.05,0,0,0.05,72.95,0)" xlink:href="#au"/><use transform="matrix(0.05,0,0,0.05,77.95,0)" xlink:href="#as"/><use transform="matrix(0.05,0,0,0.05,87.95,0)" xlink:href="#T"/><use transform="matrix(0.05,0,0,0.05,93.9,0)" xlink:href="#af"/><use transform="matrix(0.05,0,0,0.05,103.9,0)" xlink:href="#at"/><use transform="matrix(0.05,0,0,0.05,113.9,0)" xlink:href="#S"/><use transform="matrix(0.05,0,0,0.05,123.9,0)" xlink:href="#R"/></g><g id="M"><use transform="matrix(0.05,0,0,0.05,0,0)" xlink:href="#au"/><use transform="matrix(0.05,0,0,0.05,5,0)" xlink:href="#aG"/><use transform="matrix(0.05,0,0,0.05,14,0)" xlink:href="#aq"/><use transform="matrix(0.05,0,0,0.05,24,0)" xlink:href="#S"/><use transform="matrix(0.05,0,0,0.05,34,0)" xlink:href="#av"/><use transform="matrix(0.05,0,0,0.05,44,0)" xlink:href="#W"/><use transform="matrix(0.05,0,0,0.05,47.95,0)" xlink:href="#X"/></g><g id="N"><use transform="matrix(0.05,0,0,0.05,0,0)" xlink:href="#Y"/><use transform="matrix(0.05,0,0,0.05,5,0)" xlink:href="#Z"/><use transform="matrix(0.05,0,0,0.05,17.950000000000003,0)" xlink:href="#aa"/><use transform="matrix(0.05,0,0,0.05,28.900000000000006,0)" xlink:href="#ab"/><use transform="matrix(0.05,0,0,0.05,40.900000000000006,0)" xlink:href="#ac"/><use transform="matrix(0.05,0,0,0.05,54.900000000000006,0)" xlink:href="#ab"/><use transform="matrix(0.05,0,0,0.05,66.9,0)" xlink:href="#ad"/></g><g id="O"><use transform="matrix(0.05,0,0,0.05,0,0)" xlink:href="#ay"/><use transform="matrix(0.05,0,0,0.05,9,0)" xlink:href="#Q"/><use transform="matrix(0.05,0,0,0.05,19,0)" xlink:href="#R"/><use transform="matrix(0.05,0,0,0.05,28,0)" xlink:href="#aK"/><use transform="matrix(0.05,0,0,0.05,38,0)" xlink:href="#W"/><use transform="matrix(0.05,0,0,0.05,41.95,0)" xlink:href="#as"/><use transform="matrix(0.05,0,0,0.05,51.95,0)" xlink:href="#ae"/><use transform="matrix(0.05,0,0,0.05,61.95,0)" xlink:href="#R"/></g><g id="P"><use transform="matrix(0.05,0,0,0.05,0,0)" xlink:href="#ay"/><use transform="matrix(0.05,0,0,0.05,9,0)" xlink:href="#Q"/><use transform="matrix(0.05,0,0,0.05,19,0)" xlink:href="#R"/><use transform="matrix(0.05,0,0,0.05,28,0)" xlink:href="#aK"/><use transform="matrix(0.05,0,0,0.05,38,0)" xlink:href="#W"/><use transform="matrix(0.05,0,0,0.05,41.95,0)" xlink:href="#as"/><use transform="matrix(0.05,0,0,0.05,51.95,0)" xlink:href="#ae"/><use transform="matrix(0.05,0,0,0.05,61.95,0)" xlink:href="#av"/><use transform="matrix(0.05,0,0,0.05,71.95,0)" xlink:href="#ag"/><use transform="matrix(0.05,0,0,0.05,86.9,0)" xlink:href="#as"/><use transform="matrix(0.05,0,0,0.05,96.9,0)" xlink:href="#ae"/><use transform="matrix(0.05,0,0,0.05,106.9,0)" xlink:href="#S"/><use transform="matrix(0.05,0,0,0.05,116.9,0)" xlink:href="#aG"/></g></defs></g></svg>